<?xml version="1.0" encoding="UTF-8"?>
<svg width="1200pt" height="1200pt" version="1.1" viewBox="0 0 1200 1200" xmlns="http://www.w3.org/2000/svg">
 <path d="m669.11 185.28c-20.105 0.39844-38.883 10.129-50.801 26.328-11.922 16.195-15.633 37.016-10.039 56.332 5.5898 19.316 19.848 34.934 38.578 42.258s39.801 5.5156 57.012-4.8828c17.215-10.402 28.609-28.219 30.832-48.207 2.2266-19.988-4.9727-39.871-19.477-53.805-12.402-11.832-28.965-18.309-46.105-18.023zm28.672 90.949 0.003906-0.003907c-8.7812 9.0859-21.512 13.199-33.949 10.965s-22.941-10.52-28.012-22.094c-5.0703-11.574-4.0352-24.914 2.7539-35.57 6.7891-10.656 18.445-17.227 31.078-17.52h0.78125c9.793-0.023437 19.207 3.7695 26.25 10.574 7.2695 6.9609 11.473 16.531 11.68 26.594 0.20312 10.066-3.6016 19.797-10.582 27.051zm267.15-39.59c-2.6328-2.3945-6.0195-3.7852-9.5742-3.9297l-146.4 1.2617-0.11328-5.4062v0.003906c-0.11328-4.8906-2.1367-9.543-5.6328-12.961-3.5-3.418-8.1992-5.332-13.09-5.332h-0.32813l-14.262 0.30469c-1.2617-3.2344-2.6289-6.4414-4.1953-9.5859l9.8789-10.281v-0.003906c3.4297-3.5664 5.3008-8.3516 5.2031-13.301-0.09375-4.9492-2.1523-9.6562-5.7188-13.086l-26.855-25.781c-3.5664-3.4219-8.3477-5.2891-13.289-5.1875-4.9453 0.097656-9.6445 2.1562-13.074 5.7188l-9.8906 10.293c-3.1836-1.4258-6.4414-2.7031-9.75-3.7891l-0.30469-14.273c-0.085938-4.957-2.1562-9.6758-5.7461-13.098-3.5352-3.4688-8.3398-5.3359-13.289-5.168l-37.188 0.74609c-4.9453 0.10547-9.6445 2.168-13.074 5.7344-3.4297 3.5664-5.3047 8.3438-5.2148 13.289l0.28906 14.285c-3.2422 1.2383-6.4375 2.6367-9.5859 4.1953l-10.309-9.9023c-3.582-3.4102-8.3633-5.2656-13.309-5.1602-4.9414 0.10547-9.6445 2.1602-13.078 5.7148l-25.73 26.816c-3.4492 3.5586-5.3359 8.3477-5.2422 13.301 0.089843 4.957 2.1562 9.6719 5.7344 13.098l10.293 9.8906c-1.4141 3.1719-2.6914 6.4297-3.7891 9.7383l-14.262 0.28906 0.003906 0.003906c-4.9531 0.09375-9.6641 2.1523-13.09 5.7227-3.4297 3.5742-5.2969 8.3633-5.1914 13.312l0.73438 37.289c0.13281 4.8711 2.1562 9.4961 5.6445 12.898 3.4883 3.4023 8.1641 5.3086 13.039 5.3164h0.36719l14.262-0.28906c1.2617 3.2852 2.6523 6.4922 4.1953 9.6016l-9.8789 10.281-0.003907-0.003907c-3.4297 3.5742-5.3008 8.3594-5.2031 13.309s2.1562 9.6602 5.7227 13.094l26.844 25.77-0.003906-0.003906c3.5781 3.4336 8.3711 5.3086 13.328 5.207 4.9492-0.085937 9.6602-2.1523 13.074-5.7344l9.8789-10.293c3.1992 1.4219 6.4531 2.6875 9.7656 3.7891l0.27734 14.223-0.003906-0.003906c0.085937 4.9062 2.0977 9.5781 5.6016 13.008 3.5039 3.4336 8.2148 5.3477 13.121 5.3359h0.32812l4.9766-0.10156v61.098h-143.45c-3.5469-0.003906-6.9492 1.4023-9.457 3.9102-2.5117 2.5078-3.9219 5.9102-3.9219 9.4531v35.848l-111.04 0.003907v-49.707c0-3.5469-1.4102-6.9492-3.918-9.4531-2.5078-2.5078-5.9102-3.9141-9.457-3.9102h-136.04c-3.5469-0.007813-6.9531 1.3984-9.4609 3.9062-2.5117 2.5078-3.918 5.9102-3.918 9.457v126.06c0 3.5469 1.4062 6.9492 3.9141 9.4531 2.5039 2.5078 5.9062 3.9141 9.4531 3.9141h54.695l0.42969 192.67h-0.003907c0.015625 7.3516 5.9648 13.312 13.316 13.34l181.34 0.61719-4.625 6.1523c-2.1367 2.832-3.0547 6.3984-2.5586 9.9102 0.5 3.5117 2.375 6.6836 5.2109 8.8086 2.3047 1.75 5.1172 2.6953 8.0078 2.6914 4.207 0.007812 8.1719-1.9688 10.699-5.332l20.68-27.484c0.16406-0.22656 0.19141-0.50391 0.35547-0.73438h-0.003906c0.39453-0.51562 0.75-1.0586 1.0625-1.6289 0.20703-0.54688 0.38281-1.1094 0.51562-1.6797 0.125-0.42969 0.28906-0.83203 0.37891-1.2617 0.33984-1.4883 0.42187-3.0234 0.24219-4.5352 0-0.14062-0.089844-0.26562-0.11328-0.41797-0.25-1.3633-0.70703-2.6758-1.3516-3.9023-0.22656-0.41797-0.48047-0.79688-0.74609-1.1992-0.26563-0.40234-0.45313-0.85937-0.76953-1.2617l-27.867-33.336c-2.2305-2.8438-5.5156-4.6641-9.1133-5.043-3.5938-0.37891-7.1875 0.71484-9.9609 3.0273-2.7773 2.3164-4.4961 5.6562-4.7656 9.2617s0.92969 7.1641 3.3281 9.8672l9.4492 11.305-165.99-0.57031-0.39062-179.37h54.605v0.003906c7.3438 0.003907 13.32-5.918 13.375-13.266v-49.641h111.04v43.781c0 3.5469 1.4102 6.9453 3.9219 9.4531 2.5078 2.5078 5.9102 3.9141 9.457 3.9102h149.51l-0.75781 66.074-5.6094 0.11328v0.003907c-4.9531 0.09375-9.6641 2.1523-13.098 5.7227-3.4375 3.5703-5.3125 8.3594-5.2188 13.312l0.28906 14.262c-3.2734 1.2617-6.4805 2.6523-9.5859 4.1953l-10.309-9.8789 0.003906-0.003906c-3.5742-3.4258-8.3594-5.2891-13.309-5.1875-4.9492 0.10156-9.6523 2.1641-13.082 5.7305l-25.805 26.844c-3.4062 3.582-5.2578 8.3633-5.1523 13.305 0.10938 4.9414 2.1641 9.6406 5.7188 13.07l10.309 9.8789c-1.4414 3.207-2.7031 6.4688-3.7891 9.75l-14.223 0.28906c-4.9609 0.09375-9.6797 2.1562-13.121 5.7305-3.4414 3.5742-5.3203 8.3711-5.2188 13.332l0.75781 37.148c0.074218 4.9648 2.1406 9.6875 5.7344 13.113 3.6016 3.3711 8.3633 5.2344 13.301 5.2031l14.273-0.28906c1.2617 3.2734 2.6523 6.4805 4.1953 9.6016l-9.8789 10.281c-3.418 3.5781-5.2773 8.3633-5.1797 13.309 0.10156 4.9453 2.1523 9.6523 5.7109 13.09l26.816 25.742c3.4688 3.3633 8.1133 5.2383 12.945 5.2305h0.36719c4.957-0.085938 9.6719-2.1523 13.098-5.7344l9.8906-10.281c3.1836 1.4023 6.4414 2.6797 9.7383 3.7891l0.30469 14.172c0.085938 4.8945 2.0898 9.5586 5.582 12.988 3.4922 3.4336 8.1914 5.3555 13.086 5.3516h0.28125l4.7617-0.10156-0.54297 37.742-74.414 0.003906c-3.5664 0-6.9844 1.4258-9.4961 3.957-2.5078 2.5352-3.9023 5.9648-3.8672 9.5312v102.32c0 7.3828 5.9805 13.363 13.363 13.363h170.53c7.3711-0.011719 13.344-5.9883 13.352-13.363v-102.32c0-7.3867-5.9922-13.375-13.379-13.375h-69.297l0.57031-38.414 5.6328-0.11328c4.9492-0.082032 9.6641-2.1289 13.109-5.6836 3.4453-3.5586 5.3359-8.3398 5.2578-13.289l-0.28906-14.273c3.2578-1.2383 6.457-2.6406 9.6016-4.207l10.27 9.8672h-0.003906c3.5625 3.4414 8.3516 5.3242 13.305 5.2305s9.668-2.1602 13.094-5.7383l25.805-26.895 0.003906 0.003907c3.3906-3.582 5.2344-8.3594 5.1289-13.289-0.10547-4.9336-2.1484-9.625-5.6875-13.062l-10.293-9.8672c1.4141-3.1953 2.6797-6.4531 3.7891-9.75l14.234-0.30469v0.003907c4.957-0.089844 9.6719-2.1484 13.109-5.7188 3.4375-3.5703 5.3086-8.3633 5.207-13.316l-0.73438-37.148 0.003906-0.003906c-0.074218-4.9648-2.1406-9.6953-5.7344-13.121-3.5898-3.3984-8.3594-5.2695-13.301-5.2188l-14.352 0.31641c-1.2617-3.2734-2.6406-6.4805-4.1797-9.6016l9.8672-10.293h-0.003906c3.4258-3.5664 5.2969-8.3477 5.1953-13.293-0.097656-4.9414-2.1602-9.6445-5.7227-13.07l-26.82-25.742c-3.582-3.4219-8.3711-5.293-13.324-5.2031-4.9414 0.089844-9.6406 2.1562-13.051 5.7344l-9.8906 10.281c-3.1836-1.4141-6.4414-2.6914-9.7383-3.7891l-0.30469-14.285h0.003906c-0.085938-4.957-2.1562-9.6719-5.75-13.086-3.4688-3.5703-8.3164-5.4609-13.285-5.1797l-4.8008 0.10156 0.75781-65.531 145.96-0.003907c3.5469 0.003907 6.9453-1.4023 9.4531-3.9102 2.5078-2.5078 3.9141-5.9062 3.9102-9.4531v-106.36c0.003907-3.543-1.4023-6.9453-3.9102-9.4531-2.5078-2.5078-5.9062-3.9141-9.4531-3.9102h-152.06v-61.719l5.4688-0.11328c4.9492-0.089844 9.6641-2.1445 13.094-5.7148 3.4336-3.5703 5.3008-8.3555 5.1953-13.309l-0.28906-14.262c3.2852-1.2461 6.4883-2.6484 9.6133-4.207l10.281 9.8789c3.5703 3.4258 8.3516 5.2969 13.297 5.1992 4.9414-0.097656 9.6484-2.1523 13.078-5.7148l25.82-26.879c3.4102-3.5781 5.2656-8.3594 5.1602-13.301-0.10938-4.9414-2.168-9.6367-5.7305-13.062l-10.281-9.8789c1.4141-3.1953 2.6914-6.4531 3.7891-9.7656l14.223-0.28906c4.957-0.078125 9.6797-2.1328 13.117-5.7031 3.4414-3.5703 5.3164-8.3633 5.2109-13.32l-0.10156-5.0508 132.43-1.1484-5.9102 500.73-66.848 0.73438 14.008-15.586v-0.003906c2.5469-2.6016 3.9219-6.125 3.8086-9.7656-0.11328-3.6367-1.7031-7.0703-4.4062-9.5078s-6.2812-3.668-9.9102-3.4062c-3.6328 0.26172-6.9961 1.9922-9.3203 4.793l-34.371 38.234v0.003906c-0.8125 0.91406-1.4961 1.9375-2.0234 3.043l-0.125 0.19141v-0.003906c-0.62891 1.4023-1.0117 2.9023-1.125 4.4336-0.03125 0.44922-0.03125 0.89453 0 1.3398 0.003906 1.1328 0.15234 2.2578 0.44141 3.3477 0.125 0.45312 0.22656 0.89844 0.39062 1.3516 0.10156 0.23828 0.11328 0.50391 0.21484 0.73438h0.003906c0.54688 1.207 1.2773 2.3281 2.1602 3.3203v0.074219l34.105 38.262c4.9102 5.5117 13.359 6 18.871 1.0859 5.5117-4.9102 5.9961-13.359 1.0859-18.871l-14.539-16.32 80.98-0.89844v0.003906c7.2695-0.074218 13.145-5.9453 13.227-13.215l6.2148-527.47c0.035156-3.5898-1.375-7.0469-3.918-9.5859zm-597.73 323.47h-109.29v-99.336h109.29zm386.71 500.21h-143.81v-75.652h143.81zm-48.809-357.36c5.5117 1.5117 10.844 3.5977 15.918 6.2266 3.5625 1.8438 7.6289 2.4805 11.59 1.8203 3.957-0.66406 7.5938-2.5938 10.363-5.4961l8.3477-8.6797 15.156 14.578-8.3477 8.6914c-2.7969 2.8906-4.5781 6.6172-5.0703 10.613s0.32812 8.043 2.3438 11.531c2.8203 4.9883 5.1172 10.258 6.8477 15.723 1.2031 3.7422 3.5664 7.0039 6.7461 9.3164 3.1758 2.3125 7.0078 3.5586 10.938 3.5586h0.39062l12.039-0.23828 0.42969 21.059-12.051 0.25391v-0.007813c-4.0195 0.0625-7.9102 1.4336-11.086 3.8984-3.1719 2.4688-5.457 5.9023-6.5117 9.7812-1.5195 5.4727-3.5859 10.781-6.1641 15.84-1.8867 3.5742-2.5586 7.668-1.9062 11.656 0.65234 3.9883 2.5898 7.6523 5.5195 10.438l8.6797 8.3242-14.578 15.156-8.7148-8.3477c-2.8867-2.7969-6.6055-4.5781-10.594-5.0742-3.9883-0.49609-8.0273 0.31641-11.512 2.3203-4.9883 2.8242-10.254 5.125-15.715 6.8594-3.8242 1.2227-7.1484 3.6523-9.4766 6.9258-2.3242 3.2734-3.5273 7.2109-3.4219 11.227l0.23828 12.023-10.105 0.20312h-0.21484l-10.773 0.22656-0.23828-12.074c-0.058594-4-1.4062-7.8711-3.8477-11.039-2.4414-3.1641-5.8398-5.457-9.6914-6.5312-5.4844-1.5117-10.801-3.5781-15.867-6.1641-3.5586-1.8906-7.6406-2.5586-11.621-1.9023-3.9766 0.65625-7.6289 2.5977-10.395 5.5273l-8.3477 8.6914-15.156-14.59 8.3633-8.7031h-0.003906c2.7812-2.8984 4.5547-6.6211 5.0469-10.609 0.49609-3.9883-0.3125-8.0312-2.3086-11.523-2.8047-4.957-5.0938-10.188-6.832-15.609-1.1914-3.875-3.625-7.2539-6.9219-9.6094-3.2969-2.3594-7.2773-3.5664-11.332-3.4414l-12.023 0.25391-0.44141-21.07 12.062-0.23828c4.0273-0.046875 7.9336-1.4062 11.121-3.8711 3.1875-2.4648 5.4883-5.8984 6.5508-9.7852 1.5039-5.4648 3.5586-10.762 6.125-15.816 1.8672-3.5703 2.5195-7.6523 1.8594-11.629-0.66016-3.9727-2.5977-7.625-5.5234-10.398l-8.6914-8.3359 14.602-15.156 8.6289 8.2734v-0.003906c2.8867 2.8281 6.6172 4.6367 10.625 5.1523 4.0117 0.51172 8.0781-0.29687 11.582-2.3086 4.957-2.8203 10.191-5.1172 15.625-6.8477 3.8438-1.207 7.1875-3.6328 9.5273-6.9102 2.3398-3.2773 3.5508-7.2266 3.4453-11.254l-0.23828-12.023 21.07-0.42969 0.23828 12.051c0.085937 4.0078 1.4648 7.8828 3.9375 11.039 2.4688 3.1602 5.8984 5.4336 9.7656 6.4805zm122.11-148.71h-295.43v-79.578l295.43-0.003906zm-56.551-295.75c-4.0195 0.0625-7.9141 1.4297-11.09 3.8984-3.1758 2.4648-5.4648 5.9023-6.5156 9.7812-1.5273 5.5117-3.6133 10.848-6.2305 15.93-1.8516 3.5664-2.4922 7.6367-1.832 11.602 0.66016 3.9609 2.5898 7.6055 5.4961 10.379l8.7031 8.3477-14.602 15.156-8.7031-8.375v0.003906c-2.9023-2.7891-6.6289-4.5586-10.625-5.0508-3.9922-0.49219-8.0391 0.32422-11.531 2.3203-4.9297 2.8125-10.141 5.0977-15.551 6.8203-3.8516 1.2031-7.207 3.6289-9.5547 6.9062-2.3516 3.2812-3.5664 7.2383-3.4688 11.273l0.23828 12.023-10.23 0.21484-10.746 0.26562-0.25391-12.125c-0.082031-4.0117-1.4609-7.8867-3.9297-11.051-2.4648-3.1641-5.8906-5.4414-9.7617-6.4961-5.4727-1.5078-10.773-3.5703-15.828-6.1523-2.6797-1.4102-5.6602-2.1523-8.6914-2.1602-5.0703 0.003906-9.918 2.0977-13.402 5.7852l-8.3359 8.6914-15.156-14.602 8.3477-8.6914c2.793-2.8945 4.5703-6.6172 5.0703-10.609 0.49609-3.9922-0.3125-8.0391-2.3047-11.531-2.8086-4.9531-5.0977-10.18-6.832-15.602-1.2383-3.8281-3.668-7.1562-6.9375-9.4961-3.2734-2.3398-7.207-3.5664-11.227-3.5039l-12.051 0.23828-0.41797-21.07 12.09-0.23828v0.003906c4.0195-0.070313 7.9102-1.4453 11.082-3.918 3.168-2.4688 5.4531-5.9062 6.5-9.7891 1.5078-5.4922 3.582-10.812 6.1914-15.879 1.8672-3.5625 2.5234-7.6445 1.8633-11.617-0.66406-3.9688-2.6055-7.6172-5.5273-10.387l-8.6797-8.3359 14.59-15.156 8.6641 8.3242c2.8828 2.7969 6.6016 4.5781 10.586 5.0742 3.9883 0.5 8.0273-0.31641 11.508-2.3203 4.9766-2.8125 10.223-5.1133 15.664-6.8594 3.8242-1.2266 7.1445-3.6562 9.4727-6.9297 2.3281-3.2734 3.5312-7.2109 3.4375-11.223l-0.23828-12.039 21.059-0.41797 0.25391 11.898-0.003906 0.003906c0.03125 4.0391 1.3906 7.9609 3.8672 11.156 2.4727 3.1914 5.9297 5.4883 9.8359 6.5273 5.4922 1.5117 10.812 3.5898 15.879 6.2031 3.5664 1.8633 7.6445 2.5156 11.613 1.8594 3.9688-0.66016 7.6172-2.5938 10.391-5.5117l8.3477-8.6797 15.156 14.578-8.2852 8.6406h0.003906c-2.8359 2.8945-4.6445 6.6406-5.1445 10.66-0.5 4.0234 0.33594 8.0977 2.375 11.598 2.8203 4.9844 5.1172 10.25 6.8477 15.711 1.1992 3.8359 3.6211 7.1719 6.8945 9.5039 3.2695 2.332 7.2148 3.5273 11.23 3.4062l12.051-0.23828 0.20312 10.344 0.21484 10.625zm-134.46 480h0.003906c-11.883 12.375-18.359 28.957-18.012 46.109 0.34766 17.148 7.4922 33.457 19.867 45.336 12.371 11.883 28.957 18.359 46.105 18.012 17.148-0.34766 33.457-7.4961 45.336-19.867 11.883-12.375 18.359-28.957 18.012-46.109-0.34766-17.148-7.4961-33.457-19.871-45.336-12.297-11.992-28.949-18.461-46.117-17.91-17.145 0.28125-33.465 7.4141-45.32 19.805zm46.738 6.8477c9.7969-0.023437 19.211 3.7773 26.25 10.586 8.5 8.1523 12.727 19.793 11.438 31.5s-7.9492 22.148-18.02 28.254c-10.07 6.1055-22.41 7.1836-33.387 2.9141s-19.344-13.402-22.641-24.707c-3.2969-11.309-1.1484-23.504 5.8086-33.004 6.9609-9.5039 17.945-15.227 29.719-15.492z" fill="#fff"/>
</svg>
