<?xml version="1.0" encoding="UTF-8"?>
<svg width="1200pt" height="1200pt" version="1.1" viewBox="0 0 1200 1200" xmlns="http://www.w3.org/2000/svg">
 <path d="m614.39 845.4c64.5 0 116.96-54.422 116.96-121.32s-52.477-121.32-116.96-121.32-116.96 54.422-116.96 121.32 52.477 121.32 116.96 121.32zm0-205.16c44.578 0 80.844 37.621 80.844 83.844s-36.266 83.844-80.844 83.844-80.832-37.609-80.832-83.844 36.266-83.844 80.832-83.844zm422.28 65.113h-84.383c-9.9727 0-18.059 8.3867-18.059 18.73 0 182.91-143.47 331.74-319.82 331.74-143.89 0-269.8-101.54-307.96-242.14 2.6641 0.38281 5.3867 0.60156 8.1484 0.60156h45.613c16.094 0 30.684-6.8047 41.242-17.797l9.1797 1.4414c2.6875 7.9688 5.8086 15.781 9.3477 23.375l-35.879 50.461c-4.6328 6.5156-4.7031 15.383-0.19141 21.973 18.457 26.93 40.98 50.293 66.938 69.422 6.3594 4.6914 14.902 4.6094 21.191-0.19141l48.648-37.223c7.332 3.6719 14.867 6.9102 22.535 9.6953l9.0234 61.992c1.1641 8.0039 7.1523 14.328 14.855 15.684 15.695 2.7461 31.512 4.1172 47.328 4.1172 15.816 0 31.621-1.3672 47.316-4.1172 7.6914-1.3438 13.691-7.668 14.855-15.684l9.0234-61.992c7.6797-2.7852 15.215-6.0234 22.535-9.6953l48.648 37.223c6.2773 4.8008 14.832 4.8828 21.191 0.19141 25.957-19.141 48.48-42.492 66.926-69.422 4.5234-6.6016 4.4531-15.469-0.19141-21.973l-35.879-50.461c3.5391-7.6094 6.6602-15.422 9.3477-23.375l59.773-9.3594c7.7148-1.2109 13.812-7.4297 15.121-15.406 5.293-32.566 5.293-65.594 0-98.16-1.2969-7.9805-7.3906-14.195-15.121-15.406l-59.773-9.3594c-2.6875-7.9688-5.8086-15.781-9.3477-23.375l35.891-50.461c4.6328-6.5156 4.7031-15.383 0.19141-21.984-18.457-26.93-40.98-50.281-66.926-69.422-6.3594-4.6914-14.902-4.6094-21.191 0.19141l-48.648 37.223c-7.332-3.6719-14.867-6.9102-22.535-9.6953l-9.0234-61.992c-1.1641-8.0039-7.1641-14.328-14.855-15.684-31.391-5.4961-63.238-5.4961-94.633 0-7.6914 1.3438-13.691 7.668-14.855 15.684l-9.0234 61.992c-7.6797 2.7852-15.215 6.0234-22.535 9.6953l-20.676-15.816c9.0234-41.137 21.742-70.836 34.703-96.758h339.74v39.84c0 6.9844 3.7422 13.391 9.7188 16.621 2.6289 1.4141 5.4844 2.125 8.3398 2.125 3.6367 0 7.2617-1.1406 10.355-3.3828l142.84-103.66c4.8359-3.5039 7.7031-9.2383 7.7031-15.348s-2.8789-11.844-7.7031-15.348l-142.84-103.64c-5.5195-4.0078-12.73-4.4883-18.695-1.2617-5.9766 3.2266-9.7188 9.6367-9.7188 16.621v39.84h-291.38c0.69531-7.1172 1.0938-14.531 1.0938-22.414 0-18.719-2.207-36.938-6.3711-54.445h195.05v39.84c0 6.9844 3.7422 13.391 9.7188 16.621 2.6289 1.4141 5.4844 2.125 8.3398 2.125 3.6367 0 7.2617-1.1406 10.355-3.3828l142.84-103.66c4.8359-3.5039 7.7031-9.2383 7.7031-15.348s-2.8789-11.844-7.7031-15.348l-142.88-103.67c-5.5195-4.0078-12.73-4.4883-18.695-1.2617-5.9766 3.2266-9.7188 9.6367-9.7188 16.621v39.84h-274.27c-43.285-36.48-99.648-58.586-161.22-58.586-136.08 0.003906-246.79 107.96-246.79 240.64 0 55.547 18.422 90.59 37.906 127.67 23.004 43.754 48.527 92.387 56.566 190.29 0.023437 0.50391 0.058593 1.0078 0.12109 1.5117 0.86328 10.812 1.5117 22.223 1.9219 34.285-8.6172 35.977-13.02 73.129-13.02 110.53 0 251.84 197.54 456.74 440.35 456.74 242.81 0 440.34-204.89 440.34-456.74 0-10.344-8.0898-18.73-18.059-18.73zm-749-362.32v18.457h-26.543c-7.332 0.046875-14.027-2.7734-19.164-8.0391-5.1367-5.2695-7.9688-12.301-7.9688-19.801 0-15.348 12.035-27.84 26.844-27.84 8.7461 0 15 2.1016 19.117 6.4336 5.3164 5.5938 7.9219 15.359 7.7266 29.016 0 0.73047-0.011719 1.3203 0 1.7773zm36.133 55.934h34.379v159.14h-34.391v-159.14zm70.5-57.707c-0.19141-13.656 2.4102-23.426 7.7266-29.016 4.1172-4.332 10.367-6.4336 19.117-6.4336 14.797 0 26.844 12.492 26.844 27.84 0 7.5-2.832 14.531-7.9688 19.801s-11.965 8.1016-19.367 8.0391h-26.34v-18.457-1.7773zm57.973 254.33c-0.83984 15.359-1.3203 31.668-1.3203 49.164 0 4.9805-4.9219 9.2031-10.727 9.2031h-205.75c-5.8203 0-10.727-4.2109-10.727-9.2031 0-10.344-0.16797-20.27-0.48047-29.855 0-0.23828 0-0.49219-0.023438-0.73047-0.20312-6.3594-0.48047-12.539-0.81641-18.574h229.85zm-206.15 95.832h182.54v4.4648c0 12.648-9.9258 22.945-22.117 22.945h-138.3c-12.191 0-22.117-10.297-22.117-22.945v-4.4648zm114.09 85.414h-45.613c-11.41 0-20.832-9.0117-21.996-20.531h89.605c-0.37109 3.625-1.5703 6.9961-3.3711 9.9258-0.12109 0.19141-0.23828 0.38281-0.35938 0.58984-3.9844 6.0352-10.68 10.02-18.266 10.02zm148.04-217.34c5.6758 4.3438 13.273 4.8594 19.453 1.3203 11.617-6.6602 23.965-11.965 36.695-15.781 6.7812-2.0273 11.797-7.9688 12.84-15.203l8.6875-59.711c18.938-2.2695 37.992-2.2695 56.914 0l8.6992 59.711c1.0547 7.2344 6.0703 13.176 12.84 15.203 12.73 3.8164 25.078 9.1328 36.695 15.781 6.1797 3.5391 13.777 3.0234 19.453-1.3203l46.871-35.855c14.941 12.277 28.414 26.258 40.246 41.746l-34.57 48.613c-4.1875 5.8906-4.6914 13.777-1.2734 20.184 6.4219 12.059 11.543 24.863 15.215 38.062 1.957 7.0312 7.6797 12.227 14.652 13.32l57.562 9.0117c2.1836 19.633 2.1836 39.395 0 59.039l-57.574 9.0117c-6.9727 1.0938-12.695 6.3008-14.652 13.32-3.6836 13.199-8.7969 26.016-15.215 38.062-3.4062 6.4062-2.9141 14.293 1.2734 20.172l34.57 48.613c-11.832 15.492-25.309 29.473-40.246 41.746l-46.871-35.855c-5.6758-4.3438-13.273-4.8594-19.453-1.3203-11.617 6.6602-23.965 11.965-36.707 15.793-6.7695 2.0273-11.785 7.9688-12.84 15.203l-8.6875 59.711c-18.938 2.2695-37.992 2.2695-56.93 0l-8.6875-59.711c-1.0547-7.2344-6.0703-13.176-12.84-15.203-12.73-3.8164-25.078-9.1328-36.707-15.781-6.1797-3.5391-13.777-3.0234-19.453 1.3203l-46.871 35.855c-14.941-12.277-28.414-26.258-40.246-41.746l34.57-48.613c4.1875-5.8906 4.6914-13.777 1.2734-20.184-6.4219-12.047-11.531-24.863-15.215-38.062-1.957-7.0312-7.6797-12.227-14.652-13.32l-9.0977-1.4297c0.23828-2.0273 0.37109-4.0938 0.42188-6.1797 26.449-5.6992 46.379-30.059 46.379-59.148v-11.484c13.344-8.2305 22.285-22.906 22.285-39.66 0-24.07 0.88672-45.742 2.4609-65.473 0.058594-0.48047 0.097657-0.97266 0.12109-1.4648 0.86328-10.586 1.9453-20.605 3.1914-30.098l15.395 11.773zm384.25-239.79c9.9727 0 18.059-8.3867 18.059-18.73v-22.609l93.266 67.68-93.266 67.68v-22.609c0-10.344-8.0898-18.73-18.059-18.73h-338.4c8.5078-16.656 16.297-33.539 21.816-52.668h316.59zm-101.61-204.47c9.9727 0 18.059-8.3867 18.059-18.73v-22.609l93.266 67.68-93.266 67.68v-22.609c0-10.344-8.0898-18.73-18.059-18.73h-225.47c-8.0391-18.887-18.457-36.562-30.926-52.668h256.39zm-664.24 144.58c0-112.02 94.512-203.16 210.67-203.16 116.16 0 210.67 91.141 210.67 203.16 0 45.996-14.785 74.125-33.504 109.74-22.344 42.504-48.996 93.254-59.242 188.55h-60.961v-159.16h26.137c16.969 0.16797 32.914-6.5039 44.977-18.863 12.059-12.359 18.695-28.859 18.695-46.453 0-36.012-28.246-65.316-62.965-65.316-18.66 0-33.742 5.9141-44.844 17.594-12.359 13.008-18.457 31.801-18.121 55.859v19.691h-34.379v-18.637-0.28906-0.78125c0.33594-24.059-5.7617-42.852-18.121-55.859-11.102-11.676-26.184-17.594-44.844-17.594-34.715 0-62.965 29.305-62.965 65.316 0 17.578 6.6367 34.078 18.695 46.453 12.047 12.359 27.938 19.031 44.762 18.863h26.34v159.16h-68.242c-10.246-95.293-36.898-146.05-59.242-188.55-18.719-35.605-33.504-63.73-33.504-109.74zm487.73 883.54c-222.89 0-404.22-188.07-404.22-419.27 0-6.4062 0.19141-12.805 0.46875-19.188 3.625 24.996 22.066 45.023 45.719 50.125 0.16797 9.457 2.4492 18.395 6.3594 26.316 12.961 86.242 55.141 165.05 119.04 222.21 64.68 57.863 147.29 89.734 232.62 89.734 190.21 0 346.05-155.57 355.5-350.47h48.312c-9.4805 222.53-186.98 400.52-403.82 400.52zm492.66-573.6-48.445-87.035c-3.2266-5.7969-9.1914-9.3711-15.648-9.3711h-96.887c-6.457 0-12.422 3.5742-15.648 9.3711l-48.445 87.035c-3.2266 5.7969-3.2266 12.938 0 18.73l48.445 87.035c3.2266 5.7969 9.1914 9.3711 15.648 9.3711h96.887c6.457 0 12.422-3.5742 15.648-9.3711l48.445-87.035c3.2266-5.7969 3.2266-12.938 0-18.73zm-74.52 77.664h-76.031l-38.016-68.293 38.016-68.293h76.031l38.016 68.293zm-92.508-68.293c0 31.164 24.445 56.52 54.492 56.52s54.492-25.355 54.492-56.52c0-31.164-24.445-56.52-54.492-56.52s-54.492 25.355-54.492 56.52zm72.852 0c0 10.5-8.2305 19.043-18.359 19.043-10.129 0-18.359-8.543-18.359-19.043s8.2305-19.043 18.359-19.043c10.129 0 18.359 8.543 18.359 19.043z" fill="#fff"/>
</svg>
